# Blender v2.79 (sub 0) OBJ File: ''
# www.blender.org
mtllib simple_sat.mtl
o Shape_IndexedFaceSet.001
v 629.719971 10036.000000 -277.691071
v 649.161011 10036.000000 -294.347046
v -652.047180 10036.000000 -1813.179932
v -671.488159 10036.000000 -1796.529907
v -1100.000244 -850.000000 -3204.999756
v 1099.999756 -850.000000 -3205.000000
v 1100.000000 -851.000000 -105.000099
v -1100.000000 -851.000000 -104.999908
v -652.047180 -2450.000000 -1813.180054
v 649.161011 -2450.000000 -294.347046
v 649.161011 -9990.000000 -294.347046
v -652.047180 -9990.000000 -1813.180054
v -671.488159 -2450.000000 -1796.530029
v -671.488159 -9990.000000 -1796.530029
v 629.719971 -2450.000000 -277.691071
v 649.161011 2496.000000 -294.347015
v -652.047180 2496.000000 -1813.179932
v -671.488159 2496.000000 -1796.529907
v 629.719971 2496.000000 -277.691040
v 629.719971 -9990.000000 -277.691040
v -1100.000244 850.000000 -3205.000000
v -1100.000000 850.000000 -104.999901
v 1099.999756 850.000000 -3205.000244
v 1100.000000 850.000000 -105.000092
vn 0.0000 1.0000 0.0000
vn -0.0000 -1.0000 -0.0003
vn 0.7594 0.0000 -0.6506
vn -0.6505 0.0000 -0.7595
vn 0.6506 0.0000 0.7594
vn 0.0000 -1.0000 0.0000
vn -1.0000 -0.0000 0.0000
vn 1.0000 -0.0000 -0.0000
vn -0.7594 0.0000 0.6506
vn 0.0000 -0.0000 -1.0000
vn 0.0000 -0.0000 1.0000
usemtl Shape.001
s 1
f 1//1 2//1 3//1 4//1
f 5//2 6//2 7//2 8//2
f 9//3 10//3 11//3 12//3
f 13//4 9//4 12//4 14//4
f 10//1 9//1 13//1 15//1
f 16//3 17//3 3//3 2//3
f 18//4 4//4 3//4 17//4
f 16//5 2//5 1//5 19//5
f 12//6 11//6 20//6 14//6
f 21//7 5//7 8//7 22//7
f 6//8 23//8 24//8 7//8
f 15//5 20//5 11//5 10//5
f 13//9 14//9 20//9 15//9
f 6//10 5//10 21//10 23//10
f 4//9 18//9 19//9 1//9
f 24//1 23//1 21//1 22//1
f 8//11 7//11 24//11 22//11
f 17//6 16//6 19//6 18//6
